<?xml version="1.0" standalone="no"?>
<!DOCTYPE svg PUBLIC "-//W3C//DTD SVG 20010904//EN"
 "http://www.w3.org/TR/2001/REC-SVG-20010904/DTD/svg10.dtd">
<svg version="1.0" xmlns="http://www.w3.org/2000/svg"
 width="700.000000pt" height="700.000000pt" viewBox="0 0 700.000000 700.000000"
 preserveAspectRatio="xMidYMid meet">
<metadata>
Created by potrace 1.14, written by Peter Selinger 2001-2017
</metadata>
<g transform="translate(0.000000,700.000000) scale(0.100000,-0.100000)"
fill="#000000" stroke="none">
<path d="M1327 6993 c-2 -1 -176 -3 -387 -4 -374 -2 -387 -3 -454 -25 -234
-80 -431 -302 -473 -535 -3 -19 -6 -1346 -7 -2949 -1 -2758 0 -2918 17 -2965
54 -155 143 -281 262 -372 72 -55 173 -104 246 -118 62 -13 627 -16 3169 -17
l2735 -1 65 25 c220 85 347 197 435 383 66 139 60 -145 59 3040 0 1590 -4
2913 -8 2940 -25 163 -92 293 -210 408 -69 67 -143 114 -248 159 l-73 31
-2563 1 c-1410 0 -2564 0 -2565 -1z m2228 -1663 c2 -30 6 -88 9 -127 7 -71 7
-73 -16 -74 -13 0 -30 -2 -38 -4 -8 -1 -35 -6 -60 -10 -178 -26 -360 -59 -387
-70 -19 -8 -33 -22 -34 -32 -1 -10 -2 -31 -4 -48 -25 -292 -38 -1806 -21
-2530 8 -357 11 -404 25 -418 13 -13 1249 -16 1293 -4 30 8 49 34 118 162 23
44 55 103 70 130 15 28 49 91 75 140 58 110 84 155 102 176 14 16 23 16 123
-6 14 -3 34 -7 45 -9 80 -16 115 -30 115 -45 0 -9 -12 -59 -26 -111 -13 -52
-27 -104 -29 -115 -3 -11 -28 -103 -56 -205 -27 -102 -52 -192 -54 -200 -21
-90 -90 -317 -98 -322 -6 -3 -31 -5 -56 -2 -149 12 -608 18 -1548 18 -937 1
-1063 3 -1064 16 -5 60 -6 205 -2 219 3 11 21 22 51 29 26 6 99 23 162 37 128
30 165 46 172 72 10 37 12 364 13 1676 l0 1349 -22 17 c-11 10 -86 35 -165 55
-78 21 -159 44 -178 51 l-35 13 0 108 c0 60 1 112 2 115 1 3 343 5 759 5 l757
-1 2 -55z"/>
</g>
</svg>
